<svg width="127" height="44" viewBox="0 0 127 44" fill="none" xmlns="http://www.w3.org/2000/svg">
<path d="M108.833 0.367065H109.855C112.767 0.367065 114.822 2.8761 116.02 7.89417C122.361 26.0082 126.017 36.6665 126.987 39.8691V41.0012C126.987 42.6535 125.81 43.653 123.456 43.9998H122.712C120.502 43.9998 118.974 42.0721 118.127 38.2168C116.764 34.1574 115.824 32.1278 115.308 32.1278C113.82 30.6999 111.693 29.9859 108.925 29.9859C107.397 29.9859 104.96 30.3633 101.614 31.118C101.036 31.118 100.653 30.6999 100.468 29.8635V29.7717C100.468 28.8334 101.82 28.2112 104.526 27.9053C105.538 27.6401 106.757 27.5075 108.182 27.5075H109.762C113.583 27.5075 116.505 29.017 118.53 32.036C118.839 32.6071 119.882 35.4936 121.659 40.6952C122.01 41.1848 122.361 41.4296 122.712 41.4296H123.549C124.106 41.4296 124.416 41.1134 124.478 40.481C116.898 18.0425 112.684 5.9053 111.838 4.06942C111.28 3.31467 110.516 2.9373 109.545 2.9373H108.925C107.335 2.9373 106.147 4.55899 105.363 7.80238L92.9392 43.602C92.65 43.8672 92.3712 43.9998 92.1027 43.9998H91.7C90.9977 43.857 90.6466 43.5102 90.6466 42.9595V42.6535C91.0597 41.246 95.3454 28.7314 103.504 5.10975C104.722 1.94796 106.499 0.367065 108.833 0.367065Z" fill="white"/>
<path d="M60.3511 0H61.2186C62.6644 0 63.7797 0.968936 64.5645 2.90681C71.5249 25.4269 75.0051 36.84 75.0051 37.146V37.3295C74.8606 38.1047 74.4785 38.4923 73.8589 38.4923H73.642C72.8571 38.4923 72.2272 37.4519 71.7521 35.3713C65.5559 14.8094 62.2203 3.98794 61.7453 2.90681L60.6919 2.50903C59.6385 2.73342 59.1119 3.25359 59.1119 4.06953C66.6093 26.8752 70.6471 38.941 71.2255 40.267C71.9277 41.0217 72.5886 41.3991 73.2082 41.3991H73.9518C75.4182 41.3991 76.5026 39.8692 77.2048 36.8094L90.4957 0.428372C90.7848 0.142791 91.0637 0 91.3322 0H91.7349C92.4372 0.142791 92.7883 0.489568 92.7883 1.04033V1.34631C92.7883 1.5503 88.926 12.331 81.2014 33.6884C79.3012 39.2368 78.1446 42.011 77.7315 42.011C76.6988 43.3369 75.4699 43.9999 74.0447 43.9999H73.1153C70.7814 43.9999 69.0568 42.368 67.9415 39.1042C60.3614 16.2985 56.5714 4.75289 56.5714 4.46731V3.54937C56.5714 2.14186 57.5525 0.989335 59.5146 0.091794C59.7831 0.030598 60.0619 0 60.3511 0Z" fill="white"/>
<path d="M43.4354 0H43.8692C44.5714 0.142791 44.9225 0.489568 44.9225 1.04033V39.3184C44.9225 40.7055 45.3046 41.3991 46.0688 41.3991H46.6884C47.4733 41.3991 47.8657 40.7055 47.8657 39.3184V1.04033C48.0103 0.346777 48.3614 0 48.9191 0H49.3218C50.0241 0.142791 50.3752 0.489568 50.3752 1.04033V40.267C49.9621 42.7556 48.7332 43.9999 46.6884 43.9999H46.0688C44.0241 43.9999 42.7952 42.7556 42.3821 40.267V1.04033C42.5267 0.346777 42.8778 0 43.4354 0Z" fill="white"/>
<path d="M11.8967 0.122192H13.6627C23.0809 0.122192 29.7418 3.39618 33.6455 9.94415C35.3184 13.0039 36.1549 16.3391 36.1549 19.9497V21.908C36.1549 31.1689 31.9415 37.7475 23.5146 41.6437C19.2393 43.2144 15.1291 43.9997 11.1842 43.9997H8.27195C2.90189 43.8161 0.216868 43.4081 0.216868 42.7758C0.0929432 42.7758 0.0206541 42.6024 0 42.2556V2.08046C0 1.44811 0.444062 1.07073 1.33219 0.948338C2.09639 1.17272 2.47849 1.5501 2.47849 2.08046V41.0317C5.01893 41.2969 7.40448 41.4703 9.63512 41.5519C21.1807 41.5519 28.6368 37.6965 32.0035 29.9858C33.0981 27.2116 33.6455 24.2436 33.6455 21.0818C33.6455 11.7188 29.4424 5.89501 21.0362 3.61036C18.537 2.9984 16.0482 2.69242 13.5697 2.69242H11.8967C9.62479 2.69242 8.28228 3.71236 7.86919 5.75222V37.5435C7.86919 38.7878 7.38382 39.41 6.41308 39.41C5.64888 39.1856 5.26678 38.8082 5.26678 38.2779V5.75222C5.26678 3.79395 6.41308 2.15186 8.70568 0.825946C9.69708 0.356777 10.7608 0.122192 11.8967 0.122192Z" fill="white"/>
</svg>
